<svg width="1200" height="675" viewBox="0 0 1200 675" fill="none" xmlns="http://www.w3.org/2000/svg">
  <defs>
    <linearGradient id="p1" x1="0" y1="0" x2="1" y2="1">
      <stop offset="0%" stop-color="#8B5CF6"/>
      <stop offset="100%" stop-color="#EC4899"/>
    </linearGradient>
    <linearGradient id="p2" x1="0" y1="1" x2="1" y2="0">
      <stop offset="0%" stop-color="#22C55E"/>
      <stop offset="100%" stop-color="#10B981"/>
    </linearGradient>
  </defs>
  <rect width="1200" height="675" rx="24" fill="#0F0F10"/>
  <rect x="16" y="16" width="1168" height="643" rx="20" fill="#121214" stroke="#1F2937"/>
  <g opacity="0.35">
    <circle cx="260" cy="520" r="240" fill="url(#p1)"/>
    <circle cx="980" cy="150" r="220" fill="url(#p2)"/>
  </g>
  <g>
    <rect x="120" y="160" width="260" height="220" rx="18" fill="#0B0B0C" stroke="#1F2937"/>
    <rect x="400" y="160" width="680" height="32" rx="8" fill="#1F2937"/>
    <rect x="400" y="206" width="520" height="16" rx="8" fill="#1F2937"/>
    <rect x="400" y="236" width="560" height="16" rx="8" fill="#1F2937"/>
    <rect x="400" y="266" width="520" height="16" rx="8" fill="#1F2937"/>
    <rect x="400" y="316" width="170" height="40" rx="10" fill="#8B5CF6"/>
    <rect x="590" y="316" width="170" height="40" rx="10" fill="#EC4899"/>
  </g>
  <text x="120" y="520" fill="#E5E7EB" font-family="system-ui, -apple-system, Segoe UI, Roboto" font-size="42" font-weight="700">BoolPetCare</text>
  <text x="120" y="560" fill="#9CA3AF" font-family="system-ui, -apple-system, Segoe UI, Roboto" font-size="20">Laravel · PHP · MySQL</text>
</svg>
