<svg width="1200" height="675" viewBox="0 0 1200 675" fill="none" xmlns="http://www.w3.org/2000/svg">
  <defs>
    <linearGradient id="g1" x1="0" y1="0" x2="1" y2="1">
      <stop offset="0%" stop-color="#3B82F6"/>
      <stop offset="100%" stop-color="#8B5CF6"/>
    </linearGradient>
    <linearGradient id="g2" x1="0" y1="1" x2="1" y2="0">
      <stop offset="0%" stop-color="#0EA5E9"/>
      <stop offset="100%" stop-color="#22C55E"/>
    </linearGradient>
  </defs>
  <rect width="1200" height="675" rx="24" fill="#0F0F10"/>
  <rect x="16" y="16" width="1168" height="643" rx="20" fill="#121214" stroke="#1F2937"/>
  <g opacity="0.35">
    <circle cx="250" cy="140" r="200" fill="url(#g1)"/>
    <circle cx="1000" cy="520" r="260" fill="url(#g2)"/>
  </g>
  <g>
    <rect x="120" y="160" width="420" height="300" rx="14" fill="#0B0B0C" stroke="#1F2937"/>
    <rect x="570" y="160" width="510" height="48" rx="10" fill="#0B0B0C" stroke="#1F2937"/>
    <rect x="570" y="228" width="390" height="16" rx="8" fill="#1F2937"/>
    <rect x="570" y="260" width="450" height="16" rx="8" fill="#1F2937"/>
    <rect x="570" y="292" width="410" height="16" rx="8" fill="#1F2937"/>
    <rect x="570" y="340" width="160" height="40" rx="10" fill="#3B82F6"/>
    <rect x="750" y="340" width="160" height="40" rx="10" fill="#8B5CF6"/>
  </g>
  <text x="120" y="520" fill="#E5E7EB" font-family="system-ui, -apple-system, Segoe UI, Roboto" font-size="42" font-weight="700">BoolBnb</text>
  <text x="120" y="560" fill="#9CA3AF" font-family="system-ui, -apple-system, Segoe UI, Roboto" font-size="20">Laravel · Vue.js · MySQL</text>
</svg>
